<?xml version="1.0" encoding="UTF-8"?>
<svg version="1.1" xmlns="http://www.w3.org/2000/svg" width="204" height="192">
<path d="M0 0 C1.31677734 0.54333984 1.31677734 0.54333984 2.66015625 1.09765625 C17.10151029 7.68219944 29.31144571 20.21692278 35.1875 34.984375 C36.21808747 37.97004753 37.13893593 40.96143738 38 44 C38.226875 44.76054688 38.45375 45.52109375 38.6875 46.3046875 C42.8955003 62.26002196 38.70726561 80.33195899 30.58984375 94.453125 C29.15673926 96.41715678 27.6335615 98.1996712 26 100 C24.99646484 101.21236328 24.99646484 101.21236328 23.97265625 102.44921875 C16.7949677 110.88836399 8.04662439 118.36431418 -3 121 C-4.34277044 120.70698732 -5.67879993 120.3785753 -7 120 C-7.01458252 119.30438965 -7.02916504 118.6087793 -7.04418945 117.89208984 C-7.11897969 114.71918662 -7.21553812 111.54729992 -7.3125 108.375 C-7.33505859 107.28058594 -7.35761719 106.18617188 -7.38085938 105.05859375 C-7.57358722 99.27675848 -7.87586418 95.04217095 -11 90 C-11 89.34 -11 88.68 -11 88 C-10.23816406 87.85304688 -9.47632812 87.70609375 -8.69140625 87.5546875 C-0.96237379 85.87572165 6.33668379 83.72786964 11.37109375 77.23046875 C12.61532847 75.21313885 12.61532847 75.21313885 14 72 C14.35578125 71.2884375 14.7115625 70.576875 15.078125 69.84375 C16.36058929 65.88767371 16.32936826 62.19522307 16.3125 58.0625 C16.32861328 57.27681641 16.34472656 56.49113281 16.36132812 55.68164062 C16.36669608 49.26692881 14.56533449 45.34800174 11 40 C10.83984375 37.00390625 10.83984375 37.00390625 10.9375 33.5625 C11.08378724 28.20425643 11.08378724 28.20425643 10 23 C3.75001604 22.1847847 0.66085903 24.13250192 -4.375 27.78515625 C-7.96317869 29.44575681 -10.1343637 28.70610694 -14 28 C-17.1878983 27.84348551 -20.37131237 27.85995905 -23.5625 27.875 C-24.7990332 27.86919922 -24.7990332 27.86919922 -26.06054688 27.86328125 C-29.59700656 27.86893506 -32.73943569 27.94389309 -36.2109375 28.69140625 C-39.97457502 29.10783113 -41.80541629 27.9158857 -45.0625 26.0625 C-48.96032162 23.86025587 -51.4854519 22.59410485 -56 23 C-57.1187865 26.50044563 -56.94174713 29.53994672 -56.75 33.1875 C-56.68932585 37.75828627 -56.85671103 40.44531561 -59.5 44.1875 C-63.7971056 50.78618923 -62.91127443 59.45596256 -62 67 C-61.16825053 70.47104388 -59.98867314 73.05499041 -58 76 C-57.65710938 76.63035156 -57.31421875 77.26070313 -56.9609375 77.91015625 C-52.39460318 84.8480384 -43.5677387 86.04964454 -36 88 C-36.22860058 89.46184058 -36.48370392 90.91955419 -36.75 92.375 C-36.88921875 93.18710938 -37.0284375 93.99921875 -37.171875 94.8359375 C-38 97 -38 97 -39.86328125 98.26953125 C-43.92554216 99.65827492 -47.57687502 99.55536585 -51.5625 98 C-54.48030043 95.60590734 -56.43699451 92.9360377 -58.5703125 89.83984375 C-61.48646537 86.08708965 -64.50911013 85.59878532 -69 85 C-68.28098639 88.13025663 -68.28098639 88.13025663 -65.75 89.625 C-61.34011725 93.4335351 -58.83085347 98.50743959 -57 104 C-54.57616923 105.16953416 -54.57616923 105.16953416 -52 106 C-51.01 106.495 -51.01 106.495 -50 107 C-46.32984725 107.1377685 -42.67388652 107.04271961 -39 107 C-39 111.29 -39 115.58 -39 120 C-46.4133786 121.48267572 -51.87151511 117.96472116 -58 114 C-73.7189163 102.29404115 -80.82450079 88.60351524 -85 70 C-85.19722656 69.12730469 -85.39445312 68.25460938 -85.59765625 67.35546875 C-88.25889436 51.77559906 -83.17744526 35.07359968 -74.25 22.3125 C-64.48002321 9.61518934 -52.1986611 -0.05036994 -36.23828125 -3.6171875 C-23.83733285 -5.0831621 -11.61968217 -4.91539953 0 0 Z " fill="#030303" transform="translate(125,38)"/>
</svg>
