<svg width="36" height="36" viewBox="0 0 36 36" fill="none" xmlns="http://www.w3.org/2000/svg">
<g clip-path="url(#clip0_9875_6016)">
<rect width="36" height="36" rx="18" fill="white"/>
<path d="M18.0059 0C10.491 0 8.29324 0.00775548 7.86602 0.0431999C6.32386 0.171426 5.36423 0.414312 4.31875 0.934957C3.51307 1.33516 2.87764 1.79904 2.25053 2.44931C1.10844 3.6352 0.416261 5.09415 0.165687 6.82839C0.04387 7.67031 0.00842533 7.84201 0.00122759 12.1424C-0.00153449 13.5759 0.00122759 15.4625 0.00122759 17.9929C0.00122759 25.5037 0.00952739 27.6999 0.0455297 28.1264C0.170123 29.6275 0.405457 30.5719 0.903829 31.6049C1.85627 33.5823 3.6753 35.0667 5.81829 35.6206C6.56031 35.8117 7.37984 35.9169 8.43195 35.9668C8.87772 35.9862 13.4212 36 17.9674 36C22.5136 36 27.0598 35.9945 27.4945 35.9723C28.7128 35.915 29.4202 35.82 30.2023 35.6178C32.3592 35.0612 34.145 33.5989 35.1168 31.5938C35.6055 30.5857 35.8533 29.6053 35.9654 28.1826C35.9898 27.8725 36 22.927 36 17.9882C36 13.0486 35.9889 8.11231 35.9646 7.80213C35.851 6.35647 35.6032 5.3844 35.0988 4.35691C34.6849 3.51583 34.2253 2.88771 33.558 2.24549C32.3672 1.10778 30.9108 0.415414 29.1754 0.165058C28.3345 0.0434722 28.167 0.00746986 23.8645 0H18.0059Z" fill="url(#paint0_radial_9875_6016)"/>
<path d="M18.0059 0C10.491 0 8.29324 0.00775548 7.86602 0.0431999C6.32386 0.171426 5.36423 0.414312 4.31875 0.934957C3.51307 1.33516 2.87764 1.79904 2.25053 2.44931C1.10844 3.6352 0.416261 5.09415 0.165687 6.82839C0.04387 7.67031 0.00842533 7.84201 0.00122759 12.1424C-0.00153449 13.5759 0.00122759 15.4625 0.00122759 17.9929C0.00122759 25.5037 0.00952739 27.6999 0.0455297 28.1264C0.170123 29.6275 0.405457 30.5719 0.903829 31.6049C1.85627 33.5823 3.6753 35.0667 5.81829 35.6206C6.56031 35.8117 7.37984 35.9169 8.43195 35.9668C8.87772 35.9862 13.4212 36 17.9674 36C22.5136 36 27.0598 35.9945 27.4945 35.9723C28.7128 35.915 29.4202 35.82 30.2023 35.6178C32.3592 35.0612 34.145 33.5989 35.1168 31.5938C35.6055 30.5857 35.8533 29.6053 35.9654 28.1826C35.9898 27.8725 36 22.927 36 17.9882C36 13.0486 35.9889 8.11231 35.9646 7.80213C35.851 6.35647 35.6032 5.3844 35.0988 4.35691C34.6849 3.51583 34.2253 2.88771 33.558 2.24549C32.3672 1.10778 30.9108 0.415414 29.1754 0.165058C28.3345 0.0434722 28.167 0.00746986 23.8645 0H18.0059Z" fill="url(#paint1_radial_9875_6016)"/>
<path d="M18.0059 0C10.491 0 8.29324 0.00775548 7.86602 0.0431999C6.32386 0.171426 5.36423 0.414312 4.31875 0.934957C3.51307 1.33516 2.87764 1.79904 2.25053 2.44931C1.10844 3.6352 0.416261 5.09415 0.165687 6.82839C0.04387 7.67031 0.00842533 7.84201 0.00122759 12.1424C-0.00153449 13.5759 0.00122759 15.4625 0.00122759 17.9929C0.00122759 25.5037 0.00952739 27.6999 0.0455297 28.1264C0.170123 29.6275 0.405457 30.5719 0.903829 31.6049C1.85627 33.5823 3.6753 35.0667 5.81829 35.6206C6.56031 35.8117 7.37984 35.9169 8.43195 35.9668C8.87772 35.9862 13.4212 36 17.9674 36C22.5136 36 27.0598 35.9945 27.4945 35.9723C28.7128 35.915 29.4202 35.82 30.2023 35.6178C32.3592 35.0612 34.145 33.5989 35.1168 31.5938C35.6055 30.5857 35.8533 29.6053 35.9654 28.1826C35.9898 27.8725 36 22.927 36 17.9882C36 13.0486 35.9889 8.11231 35.9646 7.80213C35.851 6.35647 35.6032 5.3844 35.0988 4.35691C34.6849 3.51583 34.2253 2.88771 33.558 2.24549C32.3672 1.10778 30.9108 0.415414 29.1754 0.165058C28.3345 0.0434722 28.167 0.00746986 23.8645 0H18.0059Z" fill="url(#paint2_radial_9875_6016)"/>
<path d="M18.0059 0C10.491 0 8.29324 0.00775548 7.86602 0.0431999C6.32386 0.171426 5.36423 0.414312 4.31875 0.934957C3.51307 1.33516 2.87764 1.79904 2.25053 2.44931C1.10844 3.6352 0.416261 5.09415 0.165687 6.82839C0.04387 7.67031 0.00842533 7.84201 0.00122759 12.1424C-0.00153449 13.5759 0.00122759 15.4625 0.00122759 17.9929C0.00122759 25.5037 0.00952739 27.6999 0.0455297 28.1264C0.170123 29.6275 0.405457 30.5719 0.903829 31.6049C1.85627 33.5823 3.6753 35.0667 5.81829 35.6206C6.56031 35.8117 7.37984 35.9169 8.43195 35.9668C8.87772 35.9862 13.4212 36 17.9674 36C22.5136 36 27.0598 35.9945 27.4945 35.9723C28.7128 35.915 29.4202 35.82 30.2023 35.6178C32.3592 35.0612 34.145 33.5989 35.1168 31.5938C35.6055 30.5857 35.8533 29.6053 35.9654 28.1826C35.9898 27.8725 36 22.927 36 17.9882C36 13.0486 35.9889 8.11231 35.9646 7.80213C35.851 6.35647 35.6032 5.3844 35.0988 4.35691C34.6849 3.51583 34.2253 2.88771 33.558 2.24549C32.3672 1.10778 30.9108 0.415414 29.1754 0.165058C28.3345 0.0434722 28.167 0.00746986 23.8645 0H18.0059Z" fill="url(#paint3_radial_9875_6016)"/>
<path d="M13.8 8H22.2C25.4 8 28 10.6 28 13.8V22.2C28 23.7383 27.3889 25.2135 26.3012 26.3012C25.2135 27.3889 23.7383 28 22.2 28H13.8C10.6 28 8 25.4 8 22.2V13.8C8 12.2617 8.61107 10.7865 9.69878 9.69878C10.7865 8.61107 12.2617 8 13.8 8ZM13.6 10C12.6452 10 11.7295 10.3793 11.0544 11.0544C10.3793 11.7295 10 12.6452 10 13.6V22.4C10 24.39 11.61 26 13.6 26H22.4C23.3548 26 24.2705 25.6207 24.9456 24.9456C25.6207 24.2705 26 23.3548 26 22.4V13.6C26 11.61 24.39 10 22.4 10H13.6ZM23.25 11.5C23.5815 11.5 23.8995 11.6317 24.1339 11.8661C24.3683 12.1005 24.5 12.4185 24.5 12.75C24.5 13.0815 24.3683 13.3995 24.1339 13.6339C23.8995 13.8683 23.5815 14 23.25 14C22.9185 14 22.6005 13.8683 22.3661 13.6339C22.1317 13.3995 22 13.0815 22 12.75C22 12.4185 22.1317 12.1005 22.3661 11.8661C22.6005 11.6317 22.9185 11.5 23.25 11.5ZM18 13C19.3261 13 20.5979 13.5268 21.5355 14.4645C22.4732 15.4021 23 16.6739 23 18C23 19.3261 22.4732 20.5979 21.5355 21.5355C20.5979 22.4732 19.3261 23 18 23C16.6739 23 15.4021 22.4732 14.4645 21.5355C13.5268 20.5979 13 19.3261 13 18C13 16.6739 13.5268 15.4021 14.4645 14.4645C15.4021 13.5268 16.6739 13 18 13ZM18 15C17.2044 15 16.4413 15.3161 15.8787 15.8787C15.3161 16.4413 15 17.2044 15 18C15 18.7956 15.3161 19.5587 15.8787 20.1213C16.4413 20.6839 17.2044 21 18 21C18.7956 21 19.5587 20.6839 20.1213 20.1213C20.6839 19.5587 21 18.7956 21 18C21 17.2044 20.6839 16.4413 20.1213 15.8787C19.5587 15.3161 18.7956 15 18 15Z" fill="white"/>
</g>
<defs>
<radialGradient id="paint0_radial_9875_6016" cx="0" cy="0" r="1" gradientUnits="userSpaceOnUse" gradientTransform="translate(34.8376 16.8736) rotate(164.25) scale(23.002 16.5718)">
<stop stop-color="#FF005F"/>
<stop offset="1" stop-color="#FC01D8"/>
</radialGradient>
<radialGradient id="paint1_radial_9875_6016" cx="0" cy="0" r="1" gradientUnits="userSpaceOnUse" gradientTransform="translate(9.56223 38.7727) rotate(-90) scale(28.7359 30.4882)">
<stop stop-color="#FFCC00"/>
<stop offset="0.1242" stop-color="#FFCC00"/>
<stop offset="0.5672" stop-color="#FE4A05"/>
<stop offset="0.6942" stop-color="#FF0F3F"/>
<stop offset="1" stop-color="#FE0657" stop-opacity="0"/>
</radialGradient>
<radialGradient id="paint2_radial_9875_6016" cx="0" cy="0" r="1" gradientUnits="userSpaceOnUse" gradientTransform="translate(18.9097 35.4923) rotate(-59.8703) scale(11.8825 15.4697)">
<stop stop-color="#FFCC00"/>
<stop offset="1" stop-color="#FFCC00" stop-opacity="0"/>
</radialGradient>
<radialGradient id="paint3_radial_9875_6016" cx="0" cy="0" r="1" gradientUnits="userSpaceOnUse" gradientTransform="translate(4.88443 1.46591) rotate(164.274) scale(22.7468 7.74982)">
<stop stop-color="#780CFF"/>
<stop offset="1" stop-color="#820BFF" stop-opacity="0"/>
</radialGradient>
<clipPath id="clip0_9875_6016">
<rect width="36" height="36" rx="18" fill="white"/>
</clipPath>
</defs>
</svg>
